# xmcd
#
# Track frame offsets:
#	150
#	20500
#	35427
#	52108
#	62184
#	79424
#	101200
#	122886
#	147309
#	159850
#	179251
#	201523
#
# Disc length: 2933 seconds
#
# Revision: 0
# Processed by: cddbd v1.5.1PL0 Copyright (c) Steve Scherf et al.
# Submitted via: dBpowerAMP V4.0
#
DISCID=b10b730c
DTITLE=Cornerstone - Favourite song of all
DYEAR=1999
DGENRE=Gospel
TTITLE0=Favourite song of all
TTITLE1=Lord I lift Your name on high
TTITLE2=At Calvary
TTITLE3=Have a little talk
TTITLE4=The wondrous cross
TTITLE5=Knowing You
TTITLE6=I am determined
TTITLE7=It was my sin
TTITLE8=You have broken the chains
TTITLE9=Becouse of who You are
TTITLE10=How beautiful
TTITLE11=Lead me Lord
EXTD=
EXTT0=
EXTT1=
EXTT2=
EXTT3=
EXTT4=
EXTT5=
EXTT6=
EXTT7=
EXTT8=
EXTT9=
EXTT10=
EXTT11=
PLAYORDER=
